<svg version="1.2" xmlns="http://www.w3.org/2000/svg" viewBox="0 0 460 244" width="460" height="244">
	<title>Vector Smart Object (Double Click to Edit)</title>
	<style>
		.s0 { fill: #ffffff } 
	</style>
	<path id="Vector Smart Object (Double Click to Edit)" fill-rule="evenodd" class="s0" d="m271.8 93c-1.3 2-2.6 4-4.1 5.7-2.1 2.3-5.6 2.6-7.9 0.5-2.3-2-2.6-5.5-0.5-7.9 0.8-0.9 1.4-2 2.1-3-3.7-19.1-17.5-27.3-25.8-30.5v65.2c0 12.3-12.6 22.4-28 22.4-15.3 0-27.9-10.1-27.9-22.4 0-12.3 12.6-22.4 27.9-22.4 6.4 0 12.1 1.8 16.8 4.6v-99.6c0-3 2.3-5.4 5.2-5.6 2.9-0.2 5.5 1.9 5.9 4.8 0.4 2.9 2.9 6.3 5.2 9.3l0.7 0.9c3.8 5.2 9.1 8.8 14.8 12.6 7.6 5.1 15.5 10.4 20.1 19.8 2.9 6 4.3 12.4 3.9 18.5-0.6 9.4-3.6 19-8.1 26.5q-0.1 0.3-0.3 0.6zm-208.9 70.6v57.8h-11.6v-37.6l-15.4 37.6h-8.8l-15.5-37.6v37.6h-11.6v-57.8h13.1l18.4 43 18.3-43zm53 12v45.8h-11.7v-5.8q-2.2 3-5.8 4.7-3.6 1.7-7.8 1.7-5.4 0-9.5-2.3-4.1-2.3-6.5-6.7-2.3-4.4-2.3-10.5v-26.9h11.5v25.2q0 5.5 2.8 8.4 2.7 2.9 7.4 2.9 4.8 0 7.5-2.9 2.7-2.9 2.7-8.4v-25.2zm17.2 44.5q-4.4-2-7-5.5-2.6-3.5-2.9-7.7h11.7q0.3 2.7 2.6 4.4 2.2 1.7 5.6 1.8 3.3 0 5.2-1.4 1.8-1.3 1.8-3.4 0-2.2-2.2-3.3-2.3-1.1-7.3-2.5-5.1-1.2-8.3-2.5-3.3-1.3-5.7-4.1-2.3-2.7-2.3-7.3 0-3.9 2.2-7 2.2-3.1 6.3-5 4-1.8 9.6-1.8 8.2 0 13 4.1 4.9 4.1 5.4 11.1h-11.1q-0.2-2.8-2.2-4.4-2.1-1.6-5.4-1.6-3.2 0-4.9 1.2-1.7 1.1-1.7 3.2 0 2.3 2.3 3.5 2.4 1.2 7.2 2.4 5 1.3 8.2 2.6 3.2 1.3 5.6 4.1 2.3 2.8 2.4 7.3 0 4-2.2 7.1-2.2 3.2-6.2 5-4.1 1.8-9.6 1.8-5.6 0-10.1-2.1zm36.8-51.9q-2.1-2-2.1-4.9 0-2.9 2.1-4.8 2-2 5-2 3.1 0 5.1 2 2 1.9 2 4.8 0 2.9-2 4.9-2 1.9-5.1 1.9-3 0-5-1.9zm10.7 7.4v45.8h-11.5v-45.8zm9.6 10.4q2.9-5.3 8.1-8.2 5.1-3 11.7-3 8.5 0 14.1 4.3 5.6 4.2 7.5 11.9h-12.5q-1-2.9-3.4-4.6-2.3-1.7-5.8-1.7-5 0-7.8 3.6-2.9 3.6-2.9 10.2 0 6.5 2.9 10.1 2.8 3.6 7.8 3.6 7 0 9.2-6.3h12.5q-1.9 7.5-7.6 11.9-5.6 4.4-14 4.4-6.6 0-11.7-3-5.2-2.9-8.1-8.3-2.9-5.3-2.9-12.4 0-7.1 2.9-12.5zm56.6 33.2q-5.2-2.9-8.3-8.3-3-5.4-3-12.4 0-7 3.1-12.4 3.1-5.4 8.5-8.3 5.4-3 12-3 6.6 0 12 3 5.3 2.9 8.4 8.3 3.1 5.4 3.1 12.4 0 7-3.2 12.4-3.1 5.4-8.6 8.3-5.4 3-12.1 3-6.6 0-11.9-3zm17.8-8.7q2.8-1.5 4.5-4.6 1.6-3 1.6-7.4 0-6.6-3.4-10.1-3.4-3.5-8.4-3.5-5 0-8.3 3.5-3.3 3.5-3.3 10.1 0 6.5 3.2 10 3.3 3.6 8.2 3.6 3.2 0 5.9-1.6zm36.4-50.3v61.2h-11.5v-61.2zm18.2 59q-5.3-2.9-8.3-8.3-3.1-5.4-3.1-12.4 0-7 3.1-12.4 3.1-5.4 8.5-8.3 5.4-3 12-3 6.6 0 12 3 5.3 2.9 8.4 8.3 3.1 5.4 3.1 12.4 0 7-3.1 12.4-3.2 5.4-8.6 8.3-5.5 3-12.1 3-6.7 0-11.9-3zm17.8-8.7q2.7-1.5 4.4-4.6 1.6-3 1.6-7.4 0-6.6-3.4-10.1-3.4-3.5-8.4-3.5-4.9 0-8.3 3.5-3.3 3.5-3.3 10.1 0 6.5 3.2 10 3.3 3.6 8.3 3.6 3.1 0 5.9-1.6zm51.7-33.7q3.9 2.1 6.1 5.3v-6.5h11.7v46.1q0 6.4-2.6 11.4-2.5 5-7.7 8-5.1 2.9-12.3 2.9-9.8 0-16-4.6-6.3-4.5-7.1-12.4h11.5q0.9 3.2 3.9 5 3 1.9 7.3 1.9 5.1 0 8.2-3 3.1-3 3.1-9.2v-7.1q-2.2 3.2-6.1 5.4-3.9 2.2-9 2.2-5.8 0-10.6-3-4.7-3-7.5-8.4-2.8-5.4-2.8-12.5 0-6.9 2.8-12.3 2.8-5.4 7.5-8.3 4.8-2.9 10.6-2.9 5.1 0 9 2zm4.5 14.4q-1.7-3-4.5-4.6-2.8-1.6-6-1.6-3.2 0-6 1.6-2.7 1.5-4.4 4.6-1.7 3-1.7 7.1 0 4.2 1.7 7.3 1.7 3.1 4.5 4.7 2.8 1.7 5.9 1.7 3.2 0 6-1.6 2.8-1.7 4.5-4.7 1.6-3 1.6-7.2 0-4.2-1.6-7.3zm66.8-15.6l-28.4 67.5h-12.3l9.9-22.9-18.3-44.6h12.9l11.9 32 11.9-32z"/>
</svg>